<?xml version="1.0" encoding="UTF-8"?>
<!-- Generator: Adobe Illustrator 19.0.0, SVG Export Plug-In . SVG Version: 6.00 Build 0)  -->
<svg version="1.0" id="Layer_1" xmlns="http://www.w3.org/2000/svg" xmlns:xlink="http://www.w3.org/1999/xlink" x="0px" y="0px" viewBox="157.2 336.6 254.7 47.4" style="enable-background:new 157.2 336.6 254.7 47.4;" xml:space="preserve">
<style type="text/css">
	.st0{fill:#80AA1A;}
	.st1{fill:#1C1B17;}
	.st2{fill:#FEFEFE;}
	.st3{fill:#FFFFFF;}
</style>
<g>
	<rect x="157.2" y="349.7" class="st0" width="102.5" height="34.3"/>
	<path class="st1" d="M157.2,341.3c0.2,0.1,0.4,0.2,0.6,0.2l3.5-5c2.3,0.9,4.4,2.1,6.4,3.4l-2.6,5.3c1.8,1.3,3.4,2.8,4.8,4.4   l5.5-2.6c1.5,1.9,2.8,3.9,3.9,6.1l-5.1,3.3c1,2.2,1.7,4.6,2.1,7l6.1,0.4c0.1,1.2,0.2,2.4,0.2,3.6c0,1.2-0.1,2.4-0.2,3.6l-6.1,0.4   c-0.3,2-0.8,3.8-1.5,5.6l5.1,3.4c-0.5,1.2-1.1,2.3-1.7,3.5h-14.5c4.5-4.1,7.4-9.9,7.4-16.4c0-9.2-5.7-17.1-13.8-20.5V341.3z"/>
	<polygon class="st1" points="265.2,365.2 259.7,365.2 259.7,368.5 265.2,368.5  "/>
	<polygon class="st2" points="259.7,365.2 254.1,365.2 254.1,368.5 259.7,368.5  "/>
	<g>
		<path class="st1" d="M275.1,373h8.4v2.6H272v-17h11v2.6h-7.9v4.4h6.8v2.6h-6.8V373z"/>
		<path class="st1" d="M290,365L290,365c0.2-0.3,0.5-0.5,0.7-0.7s0.6-0.5,0.9-0.6s0.7-0.3,1.1-0.5c0.4-0.1,0.9-0.2,1.3-0.2    c0.4,0,0.9,0.1,1.3,0.2c0.4,0.1,0.8,0.3,1.1,0.5s0.7,0.5,0.9,0.8c0.3,0.3,0.5,0.8,0.6,1.2c0.1,0.3,0.1,0.5,0.2,0.9    c0,0.3,0,0.7,0,1.1v8h-3v-7.5c0-0.3,0-0.6,0-0.9s-0.1-0.4-0.1-0.6c-0.2-0.4-0.4-0.7-0.7-0.8c-0.3-0.2-0.7-0.3-1.1-0.3    c-0.6,0-1.1,0.1-1.7,0.4s-1,0.7-1.4,1.2v8.5h-3v-12.3h2.5L290,365z"/>
		<path class="st1" d="M310.4,375.9c0-0.2,0-0.4,0-0.6c0-0.2,0-0.5,0-0.6h0c-0.2,0.2-0.4,0.3-0.6,0.5c-0.2,0.1-0.5,0.3-0.8,0.4    s-0.6,0.2-1,0.3s-0.7,0.1-1.1,0.1c-0.7,0-1.3-0.1-1.9-0.3c-0.6-0.2-1.2-0.6-1.7-1.1s-0.9-1.1-1.2-1.9s-0.4-1.7-0.4-2.8    s0.2-2.1,0.5-2.9c0.3-0.8,0.7-1.5,1.2-2.1s1.1-1,1.7-1.3c0.6-0.3,1.3-0.4,2-0.4c0.8,0,1.4,0.2,2,0.5s1.1,0.7,1.4,1.2h0.1l0.1-1.4    h2.6v12.5c0,0.7-0.1,1.3-0.2,1.9s-0.3,1-0.5,1.4c-0.3,0.5-0.6,0.9-1,1.2c-0.4,0.3-0.9,0.6-1.4,0.9c-0.5,0.2-1.1,0.4-1.8,0.5    s-1.3,0.2-2,0.2c-0.4,0-0.8,0-1.2,0s-0.8-0.1-1.1-0.1c-0.3-0.1-0.7-0.1-0.9-0.2c-0.3-0.1-0.5-0.1-0.7-0.2v-2.5    c0.6,0.2,1.1,0.3,1.8,0.4c0.6,0.1,1.3,0.1,1.9,0.1c1.3,0,2.4-0.3,3.1-0.8s1.1-1.3,1.1-2.4V375.9z M307.7,373.5    c0.3,0,0.6,0,0.9-0.1s0.5-0.2,0.7-0.3s0.4-0.2,0.6-0.4c0.2-0.1,0.3-0.3,0.5-0.4v-5.5c-0.3-0.4-0.7-0.7-1.2-1s-1-0.4-1.5-0.4    c-0.2,0-0.4,0-0.6,0.1c-0.2,0-0.4,0.1-0.6,0.2s-0.4,0.3-0.6,0.5c-0.2,0.2-0.4,0.5-0.5,0.8s-0.3,0.7-0.3,1.1    c-0.1,0.4-0.1,0.9-0.1,1.5c0,0.6,0.1,1.2,0.2,1.7s0.3,0.9,0.5,1.2s0.5,0.6,0.9,0.8C306.9,373.4,307.3,373.5,307.7,373.5z"/>
		<path class="st1" d="M317.6,357.2h3.2v3.3h-3.2V357.2z M317.6,363.3h3v12.3h-3V363.3z"/>
		<path class="st1" d="M327.6,365L327.6,365c0.2-0.3,0.5-0.5,0.7-0.7s0.6-0.5,0.9-0.6s0.7-0.3,1.1-0.5c0.4-0.1,0.9-0.2,1.3-0.2    c0.4,0,0.9,0.1,1.3,0.2c0.4,0.1,0.8,0.3,1.1,0.5s0.7,0.5,0.9,0.8c0.3,0.3,0.5,0.8,0.6,1.2c0.1,0.3,0.1,0.5,0.2,0.9    c0,0.3,0,0.7,0,1.1v8h-3v-7.5c0-0.3,0-0.6,0-0.9s-0.1-0.4-0.1-0.6c-0.2-0.4-0.4-0.7-0.7-0.8c-0.3-0.2-0.7-0.3-1.1-0.3    c-0.6,0-1.1,0.1-1.7,0.4c-0.5,0.3-1,0.7-1.4,1.2v8.5h-3v-12.3h2.5L327.6,365z"/>
		<path class="st1" d="M346.4,373.5c0.6,0,1.2-0.1,1.8-0.2s1.3-0.3,1.9-0.5v2.4c-0.4,0.2-1,0.3-1.8,0.5s-1.6,0.2-2.5,0.2    c-0.9,0-1.7-0.1-2.5-0.3c-0.8-0.2-1.5-0.6-2.1-1.1s-1-1.1-1.4-1.9c-0.3-0.8-0.5-1.8-0.5-2.9c0-1.1,0.2-2.1,0.5-2.9    s0.8-1.5,1.3-2.1s1.2-1,1.9-1.2c0.7-0.3,1.4-0.4,2.2-0.4c0.8,0,1.5,0.1,2.2,0.4c0.7,0.2,1.2,0.6,1.7,1.1c0.5,0.5,0.9,1.2,1.1,2    c0.3,0.8,0.4,1.7,0.4,2.8c0,0.4,0,0.8,0,1.1h-8.1c0,0.6,0.2,1.1,0.4,1.5s0.5,0.7,0.8,1c0.3,0.2,0.7,0.4,1.2,0.5    S345.9,373.5,346.4,373.5z M345.2,365.4c-0.4,0-0.7,0.1-1,0.2s-0.6,0.3-0.8,0.6c-0.2,0.2-0.4,0.5-0.5,0.8s-0.2,0.7-0.3,1h4.8    c0-0.4,0-0.7-0.1-1c-0.1-0.3-0.2-0.6-0.4-0.8c-0.2-0.2-0.4-0.4-0.7-0.6C346,365.4,345.6,365.4,345.2,365.4z"/>
		<path class="st1" d="M360.6,373.5c0.6,0,1.2-0.1,1.8-0.2s1.3-0.3,1.9-0.5v2.4c-0.4,0.2-1,0.3-1.8,0.5s-1.6,0.2-2.5,0.2    c-0.9,0-1.7-0.1-2.5-0.3c-0.8-0.2-1.5-0.6-2.1-1.1s-1-1.1-1.4-1.9c-0.3-0.8-0.5-1.8-0.5-2.9c0-1.1,0.2-2.1,0.5-2.9    s0.8-1.5,1.3-2.1s1.2-1,1.9-1.2c0.7-0.3,1.4-0.4,2.2-0.4c0.8,0,1.5,0.1,2.2,0.4c0.7,0.2,1.2,0.6,1.7,1.1c0.5,0.5,0.9,1.2,1.1,2    c0.3,0.8,0.4,1.7,0.4,2.8c0,0.4,0,0.8,0,1.1h-8.1c0,0.6,0.2,1.1,0.4,1.5s0.5,0.7,0.8,1c0.3,0.2,0.7,0.4,1.2,0.5    S360.1,373.5,360.6,373.5z M359.4,365.4c-0.4,0-0.7,0.1-1,0.2s-0.6,0.3-0.8,0.6c-0.2,0.2-0.4,0.5-0.5,0.8s-0.2,0.7-0.3,1h4.8    c0-0.4,0-0.7-0.1-1c-0.1-0.3-0.2-0.6-0.4-0.8c-0.2-0.2-0.4-0.4-0.7-0.6C360.1,365.4,359.8,365.4,359.4,365.4z"/>
		<path class="st1" d="M375.8,365.7h-0.3c-0.9,0-1.7,0.1-2.4,0.4c-0.7,0.3-1.2,0.7-1.6,1.3v8.2h-3v-12.3h2.5l0.3,1.7h0.1    c0.4-0.6,0.8-1.1,1.5-1.5c0.6-0.4,1.4-0.5,2.2-0.5c0.3,0,0.6,0,0.8,0.1V365.7z"/>
		<path class="st1" d="M378.4,357.2h3.2v3.3h-3.2V357.2z M378.4,363.3h3v12.3h-3V363.3z"/>
		<path class="st1" d="M388.4,365L388.4,365c0.2-0.3,0.5-0.5,0.7-0.7c0.3-0.2,0.6-0.5,0.9-0.6c0.3-0.2,0.7-0.3,1.1-0.5    s0.9-0.2,1.3-0.2c0.4,0,0.9,0.1,1.3,0.2s0.8,0.3,1.1,0.5c0.3,0.2,0.7,0.5,0.9,0.8s0.5,0.8,0.6,1.2c0.1,0.3,0.1,0.5,0.2,0.9    s0,0.7,0,1.1v8h-3v-7.5c0-0.3,0-0.6,0-0.9s-0.1-0.4-0.1-0.6c-0.2-0.4-0.4-0.7-0.7-0.8s-0.7-0.3-1.1-0.3c-0.6,0-1.1,0.1-1.7,0.4    s-1,0.7-1.4,1.2v8.5h-3v-12.3h2.5L388.4,365z"/>
		<path class="st1" d="M408.9,375.9c0-0.2,0-0.4,0-0.6s0-0.5,0-0.6h0c-0.2,0.2-0.4,0.3-0.6,0.5s-0.5,0.3-0.8,0.4    c-0.3,0.1-0.6,0.2-1,0.3c-0.3,0.1-0.7,0.1-1.1,0.1c-0.7,0-1.3-0.1-1.9-0.3s-1.2-0.6-1.7-1.1s-0.9-1.1-1.2-1.9    c-0.3-0.8-0.4-1.7-0.4-2.8s0.2-2.1,0.5-2.9s0.7-1.5,1.2-2.1c0.5-0.6,1.1-1,1.7-1.3s1.3-0.4,2-0.4c0.8,0,1.4,0.2,2,0.5    s1.1,0.7,1.4,1.2h0.1l0.1-1.4h2.6v12.5c0,0.7-0.1,1.3-0.2,1.9c-0.1,0.5-0.3,1-0.5,1.4c-0.3,0.5-0.6,0.9-1,1.2s-0.9,0.6-1.4,0.9    s-1.1,0.4-1.8,0.5c-0.6,0.1-1.3,0.2-2,0.2c-0.4,0-0.8,0-1.2,0c-0.4,0-0.8-0.1-1.1-0.1s-0.7-0.1-0.9-0.2s-0.5-0.1-0.7-0.2v-2.5    c0.6,0.2,1.1,0.3,1.8,0.4s1.3,0.1,1.9,0.1c1.3,0,2.4-0.3,3.1-0.8s1.1-1.3,1.1-2.4V375.9z M406.2,373.5c0.3,0,0.6,0,0.9-0.1    c0.3-0.1,0.5-0.2,0.7-0.3s0.4-0.2,0.6-0.4s0.3-0.3,0.5-0.4v-5.5c-0.3-0.4-0.7-0.7-1.2-1c-0.5-0.3-1-0.4-1.5-0.4    c-0.2,0-0.4,0-0.6,0.1s-0.4,0.1-0.6,0.2c-0.2,0.1-0.4,0.3-0.6,0.5s-0.4,0.5-0.5,0.8c-0.1,0.3-0.3,0.7-0.3,1.1s-0.1,0.9-0.1,1.5    c0,0.6,0.1,1.2,0.2,1.7c0.1,0.5,0.3,0.9,0.5,1.2c0.2,0.3,0.5,0.6,0.9,0.8S405.7,373.5,406.2,373.5z"/>
	</g>
	<g>
		<path class="st3" d="M200.2,375.7h-14.1v-2.3l9-12h-8.3v-3.2h13.4v2.2l-8.8,12.1h8.8V375.7z"/>
		<path class="st3" d="M209,358.2v3.1h-1.5v11.4h1.5v3.1h-6.9v-3.1h1.5v-11.4h-1.5v-3.1H209z"/>
		<path class="st3" d="M232.2,375.7h-3.9v-10.5c0-1.1,0-2.4,0.1-3.7h-0.1c-0.2,1.1-0.4,1.8-0.5,2.3l-4.1,11.9h-3.2l-4.2-11.8    c-0.1-0.3-0.3-1.1-0.5-2.4h-0.1c0.1,1.7,0.2,3.2,0.2,4.5v9.7h-3.6v-17.5h5.8l3.6,10.4c0.3,0.8,0.5,1.7,0.6,2.5h0.1    c0.2-1,0.5-1.8,0.7-2.5l3.6-10.4h5.6V375.7z"/>
		<path class="st3" d="M252.4,375.7h-4.3l-1.2-3.9h-6.2l-1.2,3.9h-4.3l6.4-17.5h4.7L252.4,375.7z M246,368.8l-1.9-5.9    c-0.1-0.4-0.2-1-0.3-1.6h-0.1c0,0.5-0.1,1-0.3,1.5l-1.9,5.9H246z"/>
	</g>
</g>
</svg>